<svg xmlns="http://www.w3.org/2000/svg" width="500" height="500" viewBox="0 0 500 500"><rect x="0" y="0" width="500" height="500" fill="#0a0a0a"/><g transform="translate(110.25118275928705,49.65517241379317)translate(146.89499182621324,200.08620689655157)rotate(0)translate(-146.89499182621324,-200.08620689655157) scale(4.548395833112871,4.548395833112871)" opacity="1"><defs class="defs"><linearGradient id="linearGradient8a7ec5be0d820e3804ea818581732606" class="linearGradient1" gradientTransform="translate(0.5,0.5) rotate(0) translate(-0.5,-0.5)" x1="50%" y1="0%" x2="50%" y2="100%"><stop id="stop1" offset="0%" class="linearGradientColor1" stop-color="#FFFFFF"/><stop id="stop2" offset="100%" class="linearGradientColor2" stop-color="#000000"/></linearGradient></defs><path transform="translate(-17.704,-6.008999999999999)" d="M17.704,65.726c0,17.393 32.296,28.264 32.296,28.264c0,0 32.296,-10.871 32.296,-28.265c0,-1.77 -0.257,-3.482 -0.475,-5.184c-2.202,-17.218 -1.497,-34.588 -0.021,-51.882c0.152,-1.777 -0.186,-1.803 -1.372,-0.471c-2.838,3.183 -8.315,5.256 -14.553,5.093c-6.448,-0.168 -11.95,-2.684 -14.512,-6.192c-1.052,-1.44 -1.676,-1.44 -2.729,0c-2.561,3.508 -8.063,6.023 -14.513,6.192c-6.238,0.163 -11.717,-1.91 -14.554,-5.095c-1.186,-1.332 -1.522,-1.306 -1.371,0.471c1.478,17.295 2.179,34.667 -0.021,51.886c-0.215,1.702 -0.471,3.414 -0.471,5.183zM20.934,65.726c0,-1.344 0.179,-2.705 0.366,-4.145l0.08,-0.626c2.113,-16.535 1.554,-32.801 0.481,-47.056c3.25,1.683 7.282,2.622 11.579,2.622c0.254,0 0.51,-0.003 0.769,-0.009c6.427,-0.169 12.28,-2.444 15.791,-6.048c3.511,3.604 9.363,5.879 15.792,6.048c0.257,0.006 0.514,0.009 0.768,0.009c4.297,0 8.327,-0.938 11.579,-2.622c-1.073,14.264 -1.634,30.534 0.479,47.053l0.083,0.64c0.188,1.437 0.365,2.793 0.365,4.134c0,11.861 -20.077,21.598 -29.068,24.845c-8.991,-3.24 -29.064,-12.961 -29.064,-24.845zM33.44,18.135c0.267,0 0.536,-0.003 0.811,-0.01c6.128,-0.161 11.884,-2.175 15.749,-5.457v34.412h-25.821c0.54,-11.268 0.099,-21.812 -0.514,-30.623c2.965,1.103 6.294,1.678 9.775,1.678zM77.017,61.158l0.084,0.649c0.181,1.38 0.351,2.685 0.351,3.918c0,10.258 -17.64,19.478 -27.451,23.124v-41.769h25.819c0.219,4.6 0.585,9.304 1.197,14.078z" fill="#C7C7C7" class="fill c1"/></g><g transform="translate(158.19534157062435,111.10379497141302)translate(40.269981384277344,50.49999999999999)rotate(0)translate(-40.269981384277344,-50.49999999999999)" opacity="1"><path transform="translate(6,75.4311503731225)rotate(0)" d="M13.63 0L-0.52-39.43L15.15-39.43L21.57-18.90L26.14-33.12L32.04-14.96L27.36 0.04L27.33 0L13.63 0ZM39.65 0L26.36-39.43L41.84-39.43L54.54 0L39.65 0ZM69.06-39.43L56.18-2.45L49.27-23.69L53.69-39.43L69.06-39.43Z" fill="#FFFFFF"/></g><g transform="translate(287.2870092720824,261.62103635072333)translate(33.41969299316406,50.49999999999999)rotate(0)translate(-33.41969299316406,-50.49999999999999)" opacity="1"><path transform="translate(6,75.4311503731225)rotate(0)" d="M41.40 0L34.79 0L34.79-18.45L13.48-18.45L3.60-28.33L3.60-39.43L13.48-49.27L19.05-49.27L19.05-31.78L41.70-31.78L51.24-21.91L51.24-9.84L41.40 0ZM34.79-40.40L21.65-40.40L21.65-49.27L41.36-49.27L49.90-40.69L49.90-35.46L34.79-35.46L34.79-40.40ZM3.60-9.84L3.60-14.78L20.01-14.78L20.01-8.91L32.19-8.91L32.19 0L11.88 0L3.60-9.84Z" fill="#FFFFFF"/></g></svg>